<svg xmlns="http://www.w3.org/2000/svg" viewBox="0 0 64 64" role="img" aria-label="Dr">
  <defs>
    <linearGradient id="g" x1="8" y1="8" x2="56" y2="56" gradientUnits="userSpaceOnUse">
      <stop stop-color="#2f7474"/>
      <stop offset="1" stop-color="#d46f5f"/>
    </linearGradient>
  </defs>
  <rect width="64" height="64" rx="12" fill="url(#g)"/>
  <path d="M19 43V21h9.2c7 0 11.7 4.2 11.7 11s-4.7 11-11.7 11H19Zm7-5.8h2c3.1 0 5-1.8 5-5.2s-1.9-5.2-5-5.2h-2v10.4Z" fill="#fff"/>
  <path d="M42 43V27.1h5.8v2.5c.8-1.8 2.4-2.8 4.5-2.8.6 0 1 .1 1.5.2v6.1c-.8-.2-1.4-.3-2.1-.3-2.4 0-3.7 1.3-3.7 4.1V43h-6Z" fill="#fff"/>
</svg>
